<?xml version="1.0" encoding="utf-8"?>
<!-- Generator: Adobe Illustrator 21.1.0, SVG Export Plug-In . SVG Version: 6.00 Build 0)  -->
<svg version="1.1"
	 id="svg10388" inkscape:version="0.44" sodipodi:docbase="C:\" sodipodi:docname="habitat for humanity.svg" sodipodi:version="0.32" xmlns:cc="http://web.resource.org/cc/" xmlns:dc="http://purl.org/dc/elements/1.1/" xmlns:inkscape="http://www.inkscape.org/namespaces/inkscape" xmlns:rdf="http://www.w3.org/1999/02/22-rdf-syntax-ns#" xmlns:sodipodi="http://sodipodi.sourceforge.net/DTD/sodipodi-0.dtd" xmlns:svg="http://www.w3.org/2000/svg"
	 xmlns="http://www.w3.org/2000/svg" xmlns:xlink="http://www.w3.org/1999/xlink" x="0px" y="0px" viewBox="0 0 205 70"
	 style="enable-background:new 0 0 205 70;" xml:space="preserve">
<style type="text/css">
	.st0{fill:none;}
	.st1{fill:#6DB340;}
	.st2{fill:#005691;}
</style>
<sodipodi:namedview  bordercolor="#666666" borderopacity="1.0" gridtolerance="10000" guidetolerance="10" height="70px" id="base" inkscape:current-layer="layer1" inkscape:cx="116.99544" inkscape:cy="21.467017" inkscape:document-units="px" inkscape:pageopacity="0.0" inkscape:pageshadow="2" inkscape:window-height="573" inkscape:window-width="853" inkscape:window-x="0" inkscape:window-y="0" inkscape:zoom="2.8" objecttolerance="10" pagecolor="#ffffff" width="205px">
	</sodipodi:namedview>
<rect x="3" y="1.8" class="st0" width="199.4" height="66.8"/>
<g id="g28">
	<g id="xfrm8" transform="matrix(0.6731,0,0,-0.6731,-77.28986,18.40364)">
		<g id="q9">
			<g id="g41">
				<path id="path45" class="st1" d="M237.1-6.7c2.6-4.1-2.8-5.6-7-4.7c-3.5,0.8-37.4,18.9-42.5,19.4c-5.1,0.5-35.6-18.3-38.9-20.1
					c-4.9-2.6-9.3-2.4-13.9,0c-1.5,0.8-13.1,6.9-15.7,8.6c2.5,2.4,37.8,23.5,41.9,25.6c4.7,2.4,7.5,3.6,12.7,1.7
					C177.5,22.4,236.1-5.1,237.1-6.7"/>
			</g>
		</g>
		<path id="path47" class="st1" d="M132.7-33.1c1.3-0.2,7.6-2.9,10-4.2c5.9-3.1,6.2-6.1,6.9-11c0.7-5.3,1.3-15.1,1.4-18.8
			c-2.5,1.1-12.2,9.2-14.5,11.2c-1.8,1.6-3.8,2.7-3.8,5.1C132.7-49.8,132.3-35.3,132.7-33.1"/>
	</g>
</g>
<g>
	<path class="st2" d="M91.6,8.5h6.5c1.8,0,3.1,0.1,4.1,0.4c0.9,0.3,1.7,0.7,2.1,1.2s0.8,1.2,1,1.9c0.2,0.7,0.3,1.9,0.3,3.5v2.2
		c0,1.6-0.2,2.8-0.5,3.5s-0.9,1.3-1.8,1.7c-0.9,0.4-2,0.6-3.4,0.6h-1.7v10h-6.5V8.5z M98.1,12.7v6.3c0.2,0,0.3,0,0.5,0
		c0.6,0,1-0.1,1.2-0.4c0.2-0.3,0.3-0.9,0.3-1.8v-2c0-0.9-0.1-1.4-0.4-1.7C99.4,12.9,98.9,12.7,98.1,12.7z"/>
	<path class="st2" d="M112.8,20.9h-5.8v-1.4c0-1.6,0.2-2.8,0.5-3.7c0.4-0.9,1.1-1.6,2.2-2.3c1.1-0.7,2.5-1,4.3-1
		c2.1,0,3.7,0.4,4.8,1.1s1.7,1.7,1.9,2.7c0.2,1.1,0.3,3.3,0.3,6.7v10.3h-6.1v-1.8c-0.4,0.7-0.9,1.3-1.5,1.6
		c-0.6,0.4-1.3,0.5-2.1,0.5c-1.1,0-2.1-0.3-3-0.9c-0.9-0.6-1.4-1.9-1.4-4v-1.7c0-1.5,0.2-2.6,0.7-3.1c0.5-0.6,1.7-1.2,3.6-1.9
		c2-0.8,3.1-1.3,3.3-1.6c0.1-0.3,0.2-0.8,0.2-1.7c0-1.1-0.1-1.8-0.2-2.1c-0.2-0.3-0.4-0.5-0.8-0.5c-0.4,0-0.7,0.1-0.8,0.4
		c-0.1,0.3-0.2,1-0.2,2.1V20.9z M114.7,23.7c-1,0.7-1.6,1.3-1.7,1.8c-0.2,0.5-0.2,1.2-0.2,2.1c0,1.1,0.1,1.7,0.2,2s0.4,0.5,0.8,0.5
		c0.4,0,0.6-0.1,0.8-0.4c0.1-0.2,0.2-0.9,0.2-1.9V23.7z"/>
	<path class="st2" d="M129.4,13l-0.1,1.9c0.5-0.8,1-1.3,1.7-1.7c0.7-0.4,1.4-0.6,2.3-0.6c1.1,0,1.9,0.3,2.6,0.8s1.1,1.1,1.3,1.9
		c0.2,0.8,0.3,2,0.3,3.8v14.3h-6.2V19.2c0-1.4,0-2.3-0.1-2.6s-0.3-0.5-0.8-0.5c-0.4,0-0.7,0.2-0.8,0.5c-0.1,0.4-0.2,1.3-0.2,2.8
		v13.8h-6.2V13H129.4z"/>
	<path class="st2" d="M146.1,10.2v3.2h1.7v3.2h-1.7v10.9c0,1.3,0.1,2.1,0.2,2.2c0.1,0.2,0.7,0.2,1.7,0.2v3.3h-2.5
		c-1.4,0-2.4-0.1-3-0.2c-0.6-0.1-1.1-0.4-1.6-0.8c-0.5-0.4-0.7-0.9-0.9-1.5c-0.1-0.5-0.2-1.8-0.2-3.9V16.7h-1.3v-3.2h1.3v-3.2H146.1
		z"/>
	<path class="st2" d="M155.4,8.5v5.6c0.5-0.5,1.1-0.9,1.7-1.1c0.6-0.2,1.3-0.4,2-0.4c1.1,0,2,0.3,2.8,0.8c0.8,0.6,1.2,1.2,1.4,1.9
		c0.2,0.7,0.3,2,0.3,4v14.1h-6.2V19c0-1.2-0.1-2-0.2-2.3s-0.4-0.5-0.8-0.5c-0.4,0-0.6,0.2-0.8,0.5s-0.2,1-0.2,2.1v14.6h-6.2V8.5
		H155.4z"/>
	<path class="st2" d="M179.8,23.5h-8.1V28c0,0.9,0.1,1.5,0.2,1.8c0.1,0.3,0.4,0.4,0.8,0.4c0.5,0,0.8-0.2,0.9-0.5
		c0.2-0.4,0.2-1,0.2-2.1v-2.7h5.9v1.5c0,1.3-0.1,2.2-0.2,2.9c-0.2,0.7-0.5,1.4-1.1,2.2c-0.6,0.8-1.3,1.3-2.2,1.7
		c-0.9,0.4-2,0.6-3.4,0.6c-1.3,0-2.5-0.2-3.5-0.6c-1-0.4-1.8-0.9-2.3-1.6s-0.9-1.4-1.2-2.2c-0.2-0.8-0.3-2-0.3-3.5v-6
		c0-1.8,0.2-3.2,0.7-4.2c0.5-1,1.3-1.8,2.4-2.4s2.4-0.8,3.8-0.8c1.7,0,3.2,0.3,4.3,1s1.9,1.5,2.4,2.6c0.5,1.1,0.7,2.6,0.7,4.6V23.5z
		 M173.6,20.2v-1.5c0-1.1-0.1-1.7-0.2-2s-0.3-0.5-0.7-0.5c-0.4,0-0.7,0.1-0.8,0.4c-0.1,0.3-0.2,1-0.2,2.1v1.5H173.6z"/>
	<path class="st2" d="M188.1,13l-0.2,2.7c0.9-1.9,2.2-2.9,3.9-3.1v7.2c-1.1,0-2,0.2-2.5,0.5c-0.5,0.3-0.9,0.7-1,1.3
		c-0.1,0.5-0.2,1.8-0.2,3.8v8.1h-6.2V13H188.1z"/>
	<path class="st2" d="M106.5,36.3v24.9H100V50.7h-1.9v10.5h-6.5V36.3h6.5v8.9h1.9v-8.9H106.5z"/>
	<path class="st2" d="M114.4,48.7h-5.8v-1.4c0-1.6,0.2-2.8,0.5-3.7c0.4-0.9,1.1-1.6,2.2-2.3s2.5-1,4.3-1c2.1,0,3.7,0.4,4.8,1.1
		s1.7,1.7,1.9,2.7c0.2,1.1,0.3,3.3,0.3,6.7v10.3h-6.1v-1.8c-0.4,0.7-0.9,1.3-1.5,1.6s-1.3,0.5-2.1,0.5c-1.1,0-2.1-0.3-3-0.9
		s-1.4-1.9-1.4-4V55c0-1.5,0.2-2.6,0.7-3.1s1.7-1.2,3.6-1.9c2-0.8,3.1-1.3,3.3-1.6c0.1-0.3,0.2-0.8,0.2-1.7c0-1.1-0.1-1.8-0.2-2.1
		c-0.2-0.3-0.4-0.5-0.8-0.5c-0.4,0-0.7,0.1-0.8,0.4c-0.1,0.3-0.2,1-0.2,2.1V48.7z M116.4,51.5c-1,0.7-1.6,1.3-1.7,1.8
		c-0.2,0.5-0.2,1.2-0.2,2.1c0,1.1,0.1,1.7,0.2,2s0.4,0.5,0.8,0.5c0.4,0,0.6-0.1,0.8-0.4c0.1-0.2,0.2-0.9,0.2-1.9V51.5z"/>
	<path class="st2" d="M131,36.3v5.9c0.5-0.6,1.1-1,1.7-1.3c0.6-0.3,1.3-0.4,2.1-0.4c0.9,0,1.6,0.1,2.2,0.4s1.1,0.6,1.4,1.1
		c0.3,0.5,0.5,1,0.6,1.4c0.1,0.5,0.1,1.4,0.1,3v9.2c0,1.5-0.1,2.6-0.3,3.3s-0.7,1.4-1.4,1.9s-1.6,0.8-2.6,0.8c-0.7,0-1.4-0.2-2-0.5
		c-0.6-0.3-1.2-0.8-1.7-1.4l-0.4,1.5h-5.8V36.3H131z M132.9,46.6c0-1.1-0.1-1.7-0.2-2.1c-0.1-0.3-0.4-0.5-0.8-0.5
		c-0.4,0-0.6,0.1-0.7,0.4c-0.1,0.3-0.2,1-0.2,2.1v8.8c0,1.1,0.1,1.8,0.2,2.1s0.4,0.5,0.8,0.5c0.4,0,0.6-0.2,0.8-0.5
		c0.1-0.3,0.2-1.1,0.2-2.3V46.6z"/>
	<path class="st2" d="M147.6,36.3v3.2h-6.4v-3.2H147.6z M147.6,40.8v20.4h-6.4V40.8H147.6z"/>
	<path class="st2" d="M156.4,38.1v3.2h1.7v3.2h-1.7v10.9c0,1.3,0.1,2.1,0.2,2.2c0.1,0.2,0.7,0.2,1.7,0.2v3.3h-2.5
		c-1.4,0-2.4-0.1-3-0.2s-1.1-0.4-1.6-0.8s-0.7-0.9-0.9-1.5s-0.2-1.8-0.2-3.9V44.5h-1.3v-3.2h1.3v-3.2H156.4z"/>
	<path class="st2" d="M165,48.7h-5.8v-1.4c0-1.6,0.2-2.8,0.5-3.7s1.1-1.6,2.2-2.3c1.1-0.7,2.5-1,4.3-1c2.1,0,3.7,0.4,4.8,1.1
		s1.7,1.7,1.9,2.7c0.2,1.1,0.3,3.3,0.3,6.7v10.3h-6.1v-1.8c-0.4,0.7-0.9,1.3-1.5,1.6c-0.6,0.4-1.3,0.5-2.1,0.5c-1.1,0-2.1-0.3-3-0.9
		c-0.9-0.6-1.4-1.9-1.4-4V55c0-1.5,0.2-2.6,0.7-3.1c0.5-0.6,1.7-1.2,3.6-1.9c2-0.8,3.1-1.3,3.3-1.6c0.1-0.3,0.2-0.8,0.2-1.7
		c0-1.1-0.1-1.8-0.2-2.1c-0.2-0.3-0.4-0.5-0.8-0.5c-0.4,0-0.7,0.1-0.8,0.4c-0.1,0.3-0.2,1-0.2,2.1V48.7z M166.9,51.5
		c-1,0.7-1.6,1.3-1.7,1.8c-0.2,0.5-0.2,1.2-0.2,2.1c0,1.1,0.1,1.7,0.2,2c0.1,0.3,0.4,0.5,0.8,0.5c0.4,0,0.6-0.1,0.8-0.4
		c0.1-0.2,0.2-0.9,0.2-1.9V51.5z"/>
	<path class="st2" d="M181.8,38.1v3.2h1.7v3.2h-1.7v10.9c0,1.3,0.1,2.1,0.2,2.2c0.1,0.2,0.7,0.2,1.7,0.2v3.3h-2.5
		c-1.4,0-2.4-0.1-3-0.2s-1.1-0.4-1.6-0.8c-0.5-0.4-0.7-0.9-0.9-1.5s-0.2-1.8-0.2-3.9V44.5h-1.3v-3.2h1.3v-3.2H181.8z"/>
</g>
<g>
	<path id="path3237" class="st2" d="M28.1,34.4c-0.3,1.9-0.6,7.6,2.9,12c3.1,4.2,7,6,7.6,11.2c0.1,0.9,0.1,1.8-0.1,2.4
		c-7.1-4.3-11.2-10.4-11.2-19.2C27.2,38.5,27.5,36.5,28.1,34.4"/>
	<path id="path3239" class="st2" d="M40.5,20.4c-1.6,1-3.3,3-3.9,4.1c-8.1,14.9,8.3,21.2,7.7,31.5c-0.1,1.9-0.6,4.2-1.7,6
		c0,0-2-0.6-2.9-1.2c0.9-2.6,1-4.3,0.3-6.7c-1.5-5.1-9-10.6-9.2-18.4C30.8,29.6,34,22.9,40.5,20.4"/>
	<path id="path3241" class="st2" d="M52.1,38.9h18.7c0.1,1.5,0.1,2.4,0.1,3.1c0,8-3.8,13.4-10.3,17.5c-5.4,3.4-11,3.3-11,3.3
		c3.5-3.4,6.3-8.2,6-13.6C55.4,44.5,53.6,42.2,52.1,38.9"/>
	<path id="path3243" class="st2" d="M49.8,16.7c-1.2,0.7-8.3,5.3-6,15.9c1.2,5.8,8.4,12.4,8.1,19.9c-0.2,5.3-3.3,9.3-4.1,10.4
		c0,0-1.7-0.1-3.3-0.5c1-1.6,2.5-4.9,2.8-7.7c1-9.7-8.9-13.9-8.4-23.8C39.1,23.9,43,19,49.8,16.7"/>
</g>
</svg>
