<?xml version="1.0" encoding="UTF-8" standalone="no"?>
<!-- Created with Inkscape (http://www.inkscape.org/) -->
<svg
   xmlns:dc="http://purl.org/dc/elements/1.1/"
   xmlns:cc="http://web.resource.org/cc/"
   xmlns:rdf="http://www.w3.org/1999/02/22-rdf-syntax-ns#"
   xmlns:svg="http://www.w3.org/2000/svg"
   xmlns="http://www.w3.org/2000/svg"
   xmlns:sodipodi="http://sodipodi.sourceforge.net/DTD/sodipodi-0.dtd"
   xmlns:inkscape="http://www.inkscape.org/namespaces/inkscape"
   width="205"
   height="70"
   id="svg10388"
   sodipodi:version="0.32"
   inkscape:version="0.44"
   version="1.0"
   sodipodi:docbase="C:\"
   sodipodi:docname="habitat for humanity.svg">
  <defs
     id="defs10390">
    <clipPath
       clip-rule="nonzero"
       id="clp5">
<path
   id="path39"
   d="M 0,81.647 L 0,0 L 243.64,0 L 243.64,81.647" />

</clipPath>
    <clipPath
       clip-rule="nonzero"
       id="clp4">
<path
   id="path26"
   d="M -77.29,-36.553 L -77.29,18.404 L 86.705,18.404 L 86.705,-36.553 L -77.29,-36.553 z " />

</clipPath>
  </defs>
  <sodipodi:namedview
     id="base"
     pagecolor="#ffffff"
     bordercolor="#666666"
     borderopacity="1.0"
     gridtolerance="10000"
     guidetolerance="10"
     objecttolerance="10"
     inkscape:pageopacity="0.0"
     inkscape:pageshadow="2"
     inkscape:zoom="2.8"
     inkscape:cx="116.99544"
     inkscape:cy="21.467017"
     inkscape:document-units="px"
     inkscape:current-layer="layer1"
     width="205px"
     height="70px"
     inkscape:window-width="853"
     inkscape:window-height="573"
     inkscape:window-x="0"
     inkscape:window-y="0" />
  <metadata
     id="metadata10393">
    <rdf:RDF>
      <cc:Work
         rdf:about="">
        <dc:format>image/svg+xml</dc:format>
        <dc:type
           rdf:resource="http://purl.org/dc/dcmitype/StillImage" />
      </cc:Work>
    </rdf:RDF>
  </metadata>
  <g
     inkscape:label="Layer 1"
     inkscape:groupmode="layer"
     id="layer1"
     transform="translate(-166.0189,-427.524)">
    <g
       class="ps00"
       id="q6"
       style="fill:none;stroke:none"
       transform="matrix(1.215841,0,0,-1.215841,103.3259,1321.104)">
<g
   transform="matrix(1,0,0,-1,131.3203,696.9271)"
   id="xfrm7">
<clipPath
   clip-rule="nonzero"
   id="clipPath10402">
<path
   id="path10404"
   d="M -77.29,-36.553 L -77.29,18.404 L 86.705,18.404 L 86.705,-36.553 L -77.29,-36.553 z " />

</clipPath>

<g
   id="g28"
   clip-path="url(#clp4)">
<g
   transform="matrix(0.6731,0,0,-0.6731,-77.28986,18.40364)"
   id="xfrm8">
<path
   id="path31"
   class="ps01"
   d="M 30.406,46.827 C 30.231,49.231 32.039,51.324 34.445,51.499 C 36.852,51.673 38.944,49.864 39.119,47.457 C 39.294,45.051 37.484,42.96 35.078,42.785 C 32.673,42.612 30.581,44.418 30.406,46.827"
   style="fill:#314d89;fill-rule:nonzero;stroke:none" />

<path
   id="path33"
   class="ps01"
   d="M 81.672,46.827 C 81.847,49.231 80.037,51.324 77.632,51.499 C 75.224,51.673 73.133,49.864 72.959,47.457 C 72.784,45.051 74.594,42.96 76.998,42.785 C 79.404,42.612 81.498,44.418 81.672,46.827"
   style="fill:#314d89;fill-rule:nonzero;stroke:none" />

<path
   id="path35"
   class="ps01"
   d="M 96.063,39.977 C 95.55,41.872 92.935,42.16 90.629,41.56 C 88.809,41.085 82.476,39.328 76.854,39.736 C 72.814,40.028 68.865,43.389 66.408,45.689 C 68.849,48.503 71.998,51.522 72.72,52.368 C 73.764,53.585 73.937,55.497 73.068,56.366 C 72.2,57.234 70.635,56.71 69.07,55.668 C 67.509,54.626 61.599,48.676 55.962,48.676 C 50.327,48.676 44.224,54.626 42.659,55.668 C 41.095,56.71 38.834,56.537 37.965,55.668 C 37.097,54.799 37.967,53.585 39.011,52.368 C 39.75,51.504 43.017,48.373 45.477,45.509 C 43.009,43.218 39.159,40.02 35.224,39.736 C 29.602,39.328 23.268,41.085 21.449,41.56 C 19.143,42.16 16.528,41.872 16.014,39.977 C 15.692,38.793 16.697,37.489 18.047,36.608 C 19.39,35.732 26.355,34.378 28.314,31.382 C 30.272,28.388 30.571,5.2197 32.396,4.4433 C 33.726,3.875 36.046,3.875 37.306,4.5166 C 39.074,5.4131 42.056,30.69 43.561,33.937 C 44.394,35.729 46.49,38.409 48.36,40.668 C 49.971,33.118 51.733,4.9951 53.431,4.4072 C 54.715,3.9638 57.271,3.9638 58.298,4.4072 C 59.973,5.1318 61.806,33.996 63.443,40.999 C 65.378,38.676 67.643,35.818 68.517,33.937 C 70.022,30.69 73.003,5.4131 74.77,4.5166 C 76.032,3.875 78.35,3.875 79.682,4.4433 C 81.504,5.2197 81.803,28.388 83.763,31.382 C 85.723,34.378 92.687,35.732 94.03,36.608 C 95.38,37.489 96.384,38.793 96.063,39.977"
   style="fill:#314d89;fill-rule:nonzero;stroke:none" />

<g
   class="ps01"
   id="q9"
   style="fill:#314d89;fill-rule:nonzero;stroke:none">
<clipPath
   clip-rule="nonzero"
   id="clipPath10412">
<path
   id="path10414"
   d="M 0,81.647 L 0,0 L 243.64,0 L 243.64,81.647" />

</clipPath>

<g
   id="g41"
   clip-path="url(#clp5)">
<path
   id="path43"
   class="ps01"
   d="M 51.67,56.097 C 51.67,58.511 53.626,60.464 56.04,60.464 C 58.449,60.464 60.407,58.511 60.407,56.097 C 60.407,53.685 58.449,51.729 56.04,51.729 C 53.626,51.729 51.67,53.685 51.67,56.097"
   style="fill:#314d89;fill-rule:nonzero;stroke:none" />

<path
   id="path45"
   class="ps02"
   d="M 96.935,55.789 C 99.058,52.42 94.612,51.156 91.217,51.932 C 88.373,52.58 60.483,67.493 56.301,67.877 C 52.133,68.257 27.045,52.833 24.28,51.353 C 20.218,49.181 16.63,49.388 12.879,51.333 C 11.641,51.979 2.0845,57.023 0,58.431 C 2.0845,60.378 31.09,77.793 34.467,79.485 C 38.351,81.434 40.666,82.456 44.936,80.861 C 47.897,79.752 96.055,57.182 96.935,55.789"
   style="fill:#6db340;fill-rule:nonzero;stroke:none" />

</g>

</g>

<path
   id="path47"
   class="ps02"
   d="M 11.003,34.157 C 12.089,33.996 17.217,31.786 19.248,30.74 C 24.13,28.226 24.383,25.726 24.94,21.657 C 25.535,17.322 26.047,9.2451 26.132,6.1846 C 24.089,7.0605 16.09,13.755 14.181,15.405 C 12.701,16.688 11.046,17.603 11.049,19.59 C 11.052,20.349 10.703,32.291 11.003,34.157"
   style="fill:#6db340;fill-rule:nonzero;stroke:none" />

<path
   id="path49"
   class="ps01"
   d="M 239.17,18.57 L 240.17,18.57 C 240.84,18.57 241.06,18.808 241.06,19.291 C 241.06,19.714 240.74,19.95 240.31,19.95 L 239.17,19.95 L 239.17,18.57 z M 239.17,16.194 L 238.55,16.194 L 238.55,20.464 L 240.18,20.464 C 241.18,20.464 241.67,20.061 241.67,19.251 C 241.67,18.481 241.17,18.157 240.56,18.077 L 241.79,16.194 L 241.11,16.194 L 239.95,18.058 L 239.17,18.058 L 239.17,16.194 z M 239.96,15.199 C 241.66,15.199 242.97,16.54 242.97,18.314 C 242.97,20.061 241.66,21.411 239.96,21.411 C 238.24,21.411 236.94,20.061 236.94,18.314 C 236.94,16.54 238.24,15.199 239.96,15.199 z M 239.96,21.962 C 241.97,21.962 243.64,20.386 243.64,18.314 C 243.64,16.223 241.97,14.646 239.96,14.646 C 237.96,14.646 236.27,16.223 236.27,18.314 C 236.27,20.386 237.96,21.962 239.96,21.962"
   style="fill:#314d89;fill-rule:nonzero;stroke:none" />

<path
   id="path51"
   class="ps01"
   d="M 116.32,57.872 C 116.14,55.726 116.1,53.23 116.1,50.558 L 116.1,45.52 C 117.06,45.475 118.02,45.432 119.43,45.432 C 120.83,45.432 121.79,45.475 122.75,45.52 L 122.75,50.558 C 122.75,53.23 122.71,55.726 122.54,57.872 L 130.82,57.872 C 130.38,53.361 130.38,49.68 130.38,42.234 C 130.38,34.788 130.38,31.106 130.82,26.595 L 122.54,26.595 C 122.71,28.739 122.75,31.24 122.75,33.91 L 122.75,40.305 C 121.79,40.35 120.83,40.393 119.43,40.393 C 118.02,40.393 117.06,40.35 116.1,40.305 L 116.1,33.91 C 116.1,31.24 116.14,28.739 116.32,26.595 L 108.04,26.595 C 108.47,31.106 108.47,34.788 108.47,42.234 C 108.47,49.68 108.47,53.361 108.04,57.872 L 116.32,57.872"
   style="fill:#314d89;fill-rule:nonzero;stroke:none" />

<path
   id="path53"
   class="ps01"
   d="M 144.13,37.985 C 141.38,37.284 139.66,35.575 139.66,33.385 C 139.66,31.851 140.63,30.669 142.03,30.669 C 142.95,30.669 143.87,31.24 144.13,31.633 L 144.13,37.985 z M 134.63,48.849 C 135.24,48.936 137.61,49.198 139.23,49.198 C 148.29,49.198 151.05,45.651 151.05,39.781 L 151.05,34.305 C 151.05,32.203 151.05,29.835 152.19,26.595 L 145.23,26.595 C 144.7,27.296 144.53,27.777 144.48,27.952 C 143.3,27.076 141.68,26.245 139.58,26.245 C 135.33,26.245 132.57,29.18 132.57,32.859 C 132.57,36.889 135.76,39.606 139.93,40.963 L 143.56,42.147 C 143.52,43.68 142.51,44.994 140.45,44.994 C 139.05,44.994 136.86,44.337 134.63,42.717 L 134.63,48.849"
   style="fill:#314d89;fill-rule:nonzero;stroke:none" />

<path
   id="path55"
   class="ps01"
   d="M 161.94,32.727 C 161.94,31.456 162.42,30.45 163.82,30.45 C 165.62,30.45 166.89,32.289 166.89,37.502 C 166.89,41.226 165.92,44.424 163.73,44.424 C 162.55,44.424 161.94,43.68 161.94,42.628 L 161.94,32.727 z M 161.94,57.872 L 161.94,47.973 C 163.03,48.629 164.61,49.198 166.19,49.198 C 170.35,49.198 174.25,46.133 174.25,38.16 C 174.25,31.982 170.88,26.07 164.66,26.07 C 162.99,26.07 161.06,26.638 159,28.259 L 156.55,26.157 L 154.45,27.428 C 154.84,30.23 154.84,33.209 154.84,36.365 L 154.84,48.936 C 154.84,50.558 154.84,52.354 154.4,57.872 L 161.94,57.872"
   style="fill:#314d89;fill-rule:nonzero;stroke:none" />

<path
   id="path57"
   class="ps01"
   d="M 184.13,48.672 C 184.04,46.397 184.04,43.066 184.04,38.336 C 184.04,32.377 184.04,29.397 184.44,26.595 L 176.55,26.595 C 176.94,29.397 176.94,32.377 176.94,35.532 L 176.94,39.737 C 176.94,42.892 176.94,45.869 176.55,48.672 L 184.13,48.672 z M 180.49,58.181 C 182.68,58.181 184.44,56.427 184.44,54.237 C 184.44,52.047 182.68,50.295 180.49,50.295 C 178.3,50.295 176.55,52.047 176.55,54.237 C 176.55,56.427 178.3,58.181 180.49,58.181"
   style="fill:#314d89;fill-rule:nonzero;stroke:none" />

<path
   id="path59"
   class="ps01"
   d="M 196.22,55.376 C 196.13,54.019 196.08,51.433 196.08,48.672 L 199.37,48.672 L 199.37,44.469 L 196.08,44.469 L 196.08,33.428 C 196.08,31.633 196.74,30.625 198.5,30.625 C 198.76,30.625 199.02,30.625 199.42,30.669 L 199.42,26.726 C 197.97,26.245 196.48,26.07 194.99,26.07 C 193.02,26.07 191.44,26.769 190.26,28.172 C 189.34,29.268 188.99,31.106 188.99,33.342 L 188.99,44.469 L 186.45,44.469 L 186.45,48.672 L 188.99,48.672 C 188.99,51.433 188.95,54.019 188.86,55.376 L 196.22,55.376"
   style="fill:#314d89;fill-rule:nonzero;stroke:none" />

<path
   id="path61"
   class="ps01"
   d="M 213.18,37.985 C 210.42,37.284 208.72,35.575 208.72,33.385 C 208.72,31.851 209.68,30.669 211.08,30.669 C 212,30.669 212.92,31.24 213.18,31.633 L 213.18,37.985 z M 203.68,48.849 C 204.29,48.936 206.66,49.198 208.28,49.198 C 217.35,49.198 220.11,45.651 220.11,39.781 L 220.11,34.305 C 220.11,32.203 220.11,29.835 221.24,26.595 L 214.28,26.595 C 213.75,27.296 213.58,27.777 213.54,27.952 C 212.35,27.076 210.73,26.245 208.63,26.245 C 204.38,26.245 201.62,29.18 201.62,32.859 C 201.62,36.889 204.82,39.606 208.98,40.963 L 212.62,42.147 C 212.57,43.68 211.56,44.994 209.5,44.994 C 208.1,44.994 205.91,44.337 203.68,42.717 L 203.68,48.849"
   style="fill:#314d89;fill-rule:nonzero;stroke:none" />

<path
   id="path63"
   class="ps01"
   d="M 231.96,55.376 C 231.88,54.019 231.83,51.433 231.83,48.672 L 235.12,48.672 L 235.12,44.469 L 231.83,44.469 L 231.83,33.428 C 231.83,31.633 232.49,30.625 234.24,30.625 C 234.51,30.625 234.77,30.625 235.16,30.669 L 235.16,26.726 C 233.72,26.245 232.23,26.07 230.74,26.07 C 228.77,26.07 227.19,26.769 226.01,28.172 C 225.09,29.268 224.74,31.106 224.74,33.342 L 224.74,44.469 L 222.19,44.469 L 222.19,48.672 L 224.74,48.672 C 224.74,51.433 224.69,54.019 224.6,55.376 L 231.96,55.376"
   style="fill:#314d89;fill-rule:nonzero;stroke:none" />

<path
   id="path65"
   class="ps01"
   d="M 115.17,18.984 C 115.07,19.057 114.76,19.223 114.24,19.223 C 113.25,19.223 112.77,18.464 112.77,17.655 C 112.77,17.183 112.91,16.706 113.01,16.468 L 114.79,16.468 L 114.79,14.191 L 112.98,14.191 L 112.98,9.3496 C 112.98,7.6416 112.98,6.0283 113.2,4.5097 L 108.92,4.5097 C 109.14,6.0283 109.14,7.6416 109.14,9.3496 L 109.14,14.191 L 107.83,14.191 L 107.83,16.468 L 109.14,16.468 L 109.14,17.395 C 109.14,18.796 109.38,19.743 110.49,20.67 C 111.44,21.429 112.63,21.69 113.67,21.69 C 114.24,21.69 114.86,21.595 115.17,21.476 L 115.17,18.984"
   style="fill:#314d89;fill-rule:nonzero;stroke:none" />

<path
   id="path67"
   class="ps01"
   d="M 119.23,10.489 C 119.23,7.6181 119.85,6.5967 120.56,6.5967 C 121.28,6.5967 121.89,7.6181 121.89,10.489 C 121.89,13.36 121.28,14.381 120.56,14.381 C 119.85,14.381 119.23,13.36 119.23,10.489 z M 126.11,10.489 C 126.11,6.4551 123.46,4.2246 120.56,4.2246 C 117.67,4.2246 115.01,6.4551 115.01,10.489 C 115.01,14.522 117.67,16.755 120.56,16.755 C 123.46,16.755 126.11,14.522 126.11,10.489"
   style="fill:#314d89;fill-rule:nonzero;stroke:none" />

<path
   id="path69"
   class="ps01"
   d="M 131.12,16.468 C 131.27,16.042 131.43,15.259 131.46,14.88 C 132.29,15.993 133.28,16.755 134.47,16.755 C 134.73,16.755 134.87,16.729 134.99,16.683 L 134.99,13.526 C 134.73,13.599 134.4,13.622 134.28,13.622 C 132.47,13.622 131.69,11.96 131.69,9.3496 C 131.69,7.6416 131.69,6.0283 131.91,4.5097 L 127.49,4.5097 C 127.71,6.0283 127.71,7.6416 127.71,9.3496 L 127.71,11.628 C 127.71,13.337 127.71,14.95 127.3,16.468 L 131.12,16.468"
   style="fill:#314d89;fill-rule:nonzero;stroke:none" />

<path
   id="path71"
   class="ps01"
   d="M 147.64,21.452 C 147.54,20.289 147.52,18.938 147.52,17.489 L 147.52,14.761 C 148.04,14.737 148.56,14.714 149.32,14.714 C 150.08,14.714 150.61,14.737 151.13,14.761 L 151.13,17.489 C 151.13,18.938 151.11,20.289 151.01,21.452 L 155.49,21.452 C 155.26,19.008 155.26,17.017 155.26,12.981 C 155.26,8.9482 155.26,6.9521 155.49,4.5097 L 151.01,4.5097 C 151.11,5.6728 151.13,7.0244 151.13,8.4717 L 151.13,11.936 C 150.61,11.96 150.08,11.985 149.32,11.985 C 148.56,11.985 148.04,11.96 147.52,11.936 L 147.52,8.4717 C 147.52,7.0244 147.54,5.6728 147.64,4.5097 L 143.16,4.5097 C 143.39,6.9521 143.39,8.9482 143.39,12.981 C 143.39,17.017 143.39,19.008 143.16,21.452 L 147.64,21.452"
   style="fill:#314d89;fill-rule:nonzero;stroke:none" />

<path
   id="path73"
   class="ps01"
   d="M 164.15,4.5097 C 163.99,4.8652 163.87,5.2666 163.8,5.5771 C 162.92,4.7217 162.02,4.2246 160.79,4.2246 C 158.77,4.2246 157.44,5.6963 157.44,7.9746 L 157.44,11.628 C 157.44,13.337 157.44,14.95 157.22,16.468 L 161.28,16.468 L 161.28,8.5185 C 161.28,7.5713 161.66,7.0244 162.35,7.0244 C 162.94,7.0244 163.56,7.4521 163.56,8.2822 L 163.56,11.628 C 163.56,13.337 163.56,14.95 163.35,16.468 L 167.62,16.468 C 167.4,14.95 167.4,13.337 167.4,11.628 L 167.4,9.3496 C 167.4,7.6416 167.4,6.0283 167.62,4.5097 L 164.15,4.5097"
   style="fill:#314d89;fill-rule:nonzero;stroke:none" />

<path
   id="path75"
   class="ps01"
   d="M 173.17,16.468 C 173.34,16.112 173.46,15.71 173.53,15.403 C 174.41,16.208 175.47,16.755 176.66,16.755 C 177.94,16.755 178.75,16.02 179.32,15.235 C 180.17,15.993 181.12,16.755 182.66,16.755 C 184.99,16.755 185.87,15.116 185.87,12.768 L 185.87,9.3496 C 185.87,7.6416 185.87,6.0283 186.08,4.5097 L 181.81,4.5097 C 182.02,6.0283 182.02,7.6416 182.02,9.3496 L 182.02,12.648 C 182.02,13.48 181.79,14.096 181.05,14.096 C 180.25,14.096 179.79,13.48 179.79,12.648 L 179.79,9.3496 C 179.79,7.6416 179.79,6.0283 180.01,4.5097 L 175.73,4.5097 C 175.95,6.0283 175.95,7.6416 175.95,9.3496 L 175.95,12.695 C 175.95,13.48 175.71,14.096 174.98,14.096 C 174.31,14.096 173.72,13.55 173.72,12.838 L 173.72,9.3496 C 173.72,7.6416 173.72,6.0283 173.93,4.5097 L 169.66,4.5097 C 169.87,6.0283 169.87,7.6416 169.87,9.3496 L 169.87,11.628 C 169.87,13.337 169.87,14.95 169.66,16.468 L 173.17,16.468"
   style="fill:#314d89;fill-rule:nonzero;stroke:none" />

<path
   id="path77"
   class="ps01"
   d="M 193.54,10.681 C 192.04,10.3 191.12,9.373 191.12,8.1865 C 191.12,7.3564 191.64,6.7158 192.4,6.7158 C 192.89,6.7158 193.4,7.0244 193.54,7.2392 L 193.54,10.681 z M 188.39,16.565 C 188.72,16.61 190,16.755 190.88,16.755 C 195.79,16.755 197.29,14.831 197.29,11.651 L 197.29,8.6865 C 197.29,7.5468 197.29,6.2636 197.9,4.5097 L 194.13,4.5097 C 193.85,4.8877 193.75,5.1494 193.73,5.2451 C 193.09,4.7695 192.21,4.3193 191.07,4.3193 C 188.77,4.3193 187.27,5.9111 187.27,7.9023 C 187.27,10.085 189,11.556 191.26,12.293 L 193.23,12.934 C 193.21,13.765 192.66,14.477 191.54,14.477 C 190.79,14.477 189.6,14.119 188.39,13.241 L 188.39,16.565"
   style="fill:#314d89;fill-rule:nonzero;stroke:none" />

<path
   id="path79"
   class="ps01"
   d="M 202.46,16.468 C 202.62,16.112 202.74,15.71 202.81,15.403 C 203.69,16.255 204.59,16.755 205.82,16.755 C 207.84,16.755 209.17,15.284 209.17,13.005 L 209.17,9.3496 C 209.17,7.6416 209.17,6.0283 209.38,4.5097 L 205.11,4.5097 C 205.33,6.0283 205.33,7.6416 205.33,9.3496 L 205.33,12.625 C 205.33,13.36 205.02,13.953 204.3,13.953 C 203.71,13.953 203.05,13.526 203.05,12.814 L 203.05,9.3496 C 203.05,7.6416 203.05,6.0283 203.26,4.5097 L 198.99,4.5097 C 199.2,6.0283 199.2,7.6416 199.2,9.3496 L 199.2,11.628 C 199.2,13.337 199.2,14.95 198.99,16.468 L 202.46,16.468"
   style="fill:#314d89;fill-rule:nonzero;stroke:none" />

<path
   id="path81"
   class="ps01"
   d="M 214.89,16.468 C 214.84,15.235 214.84,13.431 214.84,10.869 C 214.84,7.6416 214.84,6.0283 215.06,4.5097 L 210.79,4.5097 C 211,6.0283 211,7.6416 211,9.3496 L 211,11.628 C 211,13.337 211,14.95 210.79,16.468 L 214.89,16.468 z M 212.92,21.62 C 214.11,21.62 215.06,20.67 215.06,19.483 C 215.06,18.296 214.11,17.348 212.92,17.348 C 211.74,17.348 210.79,18.296 210.79,19.483 C 210.79,20.67 211.74,21.62 212.92,21.62"
   style="fill:#314d89;fill-rule:nonzero;stroke:none" />

<path
   id="path83"
   class="ps01"
   d="M 221.65,20.101 C 221.6,19.364 221.58,17.964 221.58,16.468 L 223.36,16.468 L 223.36,14.191 L 221.58,14.191 L 221.58,8.2119 C 221.58,7.2392 221.94,6.6924 222.88,6.6924 C 223.03,6.6924 223.17,6.6924 223.38,6.7158 L 223.38,4.5801 C 222.6,4.3193 221.79,4.2246 220.99,4.2246 C 219.92,4.2246 219.07,4.6035 218.43,5.3623 C 217.93,5.958 217.74,6.9521 217.74,8.1631 L 217.74,14.191 L 216.36,14.191 L 216.36,16.468 L 217.74,16.468 C 217.74,17.964 217.71,19.364 217.67,20.101 L 221.65,20.101"
   style="fill:#314d89;fill-rule:nonzero;stroke:none" />

<path
   id="path85"
   class="ps01"
   d="M 228.61,16.468 C 228.91,14.618 229.82,11.249 230.29,9.706 L 230.34,9.706 C 231,12.128 231.5,14.854 231.72,16.468 L 235.11,16.468 C 234.32,13.218 232.54,6.6201 231.03,3.5127 C 230.24,1.9228 229.06,0 225.8,0 C 225.47,0 224.98,0.02441 224.67,0.11911 L 224.67,3.1562 C 224.88,3.0371 225.4,2.8008 226,2.8008 C 227.23,2.8008 228.06,3.8213 228.06,4.6992 C 228.06,5.1494 227.97,5.4346 227.02,7.9492 C 225.73,11.319 224.76,14.88 224.5,16.468 L 228.61,16.468"
   style="fill:#314d89;fill-rule:nonzero;stroke:none" />

</g>

</g>

</g>

</g>
  </g>
</svg>
